<?xml version="1.0" encoding="UTF-8" standalone="no"?>
<!DOCTYPE svg PUBLIC "-//W3C//DTD SVG 1.1//EN" "http://www.w3.org/Graphics/SVG/1.1/DTD/svg11.dtd">
<svg xmlns="http://www.w3.org/2000/svg" version="1.1" viewBox="0.00 0.00 150.00 150.00">
<g stroke-width="2.00" fill="none" stroke-linecap="butt">
<path stroke="#7e745600" vector-effect="non-scaling-stroke" d="
  M 65.71 79.64
  Q 65.05 80.44 65.04 79.40
  Q 64.93 66.61 65.04 53.98
  C 65.07 50.86 66.16 48.63 69.47 48.56
  Q 69.86 48.55 70.24 48.03
  Q 70.49 47.67 70.05 47.67
  L 50.96 47.68
  Q 50.47 47.68 50.77 48.07
  Q 50.90 48.25 51.10 48.38
  Q 51.38 48.59 51.96 48.58
  C 55.11 48.55 55.65 51.87 55.67 54.00
  Q 55.74 63.06 55.65 99.25
  Q 55.65 101.21 54.47 103.43
  Q 54.26 103.82 53.84 103.95
  L 49.63 105.34
  Q 49.26 105.46 48.87 105.40
  L 48.50 105.34
  Q 48.38 105.33 48.34 105.44
  Q 48.29 105.57 48.33 105.73
  A 0.10 0.09 81.7 0 0 48.42 105.80
  L 72.12 106.04
  Q 72.63 106.05 72.47 105.57
  L 72.37 105.29
  Q 72.33 105.15 72.18 105.15
  C 70.10 105.15 65.17 104.63 65.08 101.70
  Q 64.91 95.85 65.03 89.91
  A 2.92 2.92 0.0 0 1 65.78 88.01
  L 74.15 78.65
  A 0.38 0.37 51.2 0 1 74.76 78.72
  C 82.37 92.81 91.11 105.24 108.74 106.38
  C 113.83 106.71 120.04 104.48 121.08 99.19
  Q 121.20 98.61 120.85 99.09
  C 120.41 99.69 120.27 100.17 119.78 100.68
  Q 115.12 105.50 108.84 104.54
  C 102.46 103.56 96.88 95.10 93.69 90.10
  Q 87.83 80.91 81.96 70.87
  A 1.14 1.13 -40.4 0 1 82.07 69.56
  C 88.65 61.77 98.08 51.77 108.25 48.91
  C 109.44 48.57 110.94 48.82 112.23 47.94
  Q 112.69 47.62 112.14 47.63
  Q 105.17 47.70 98.20 47.69
  C 92.61 47.69 89.06 52.82 84.93 57.41
  Q 74.91 68.56 65.71 79.64"
/>
<path stroke="rgba(126, 116, 86, 0)" vector-effect="non-scaling-stroke" d="
  M 41.14 97.16
  L 42.53 97.87
  Q 43.06 98.15 43.54 97.81
  C 46.00 96.10 45.26 93.42 42.54 92.89
  C 36.27 91.66 30.23 98.76 34.41 104.62
  C 35.40 106.01 38.36 106.87 40.18 106.43
  Q 46.69 104.88 49.58 98.56
  Q 49.68 98.34 49.46 98.25
  L 49.45 98.24
  Q 49.24 98.15 49.13 98.39
  Q 47.05 103.15 41.84 102.27
  A 0.91 0.90 84.8 0 1 41.15 101.69
  L 39.94 98.21
  A 0.86 0.86 0.0 0 1 41.14 97.16"
/>
</g>
<path fill="#f9e4a900" d="
  M 0.00 0.00
  L 150.00 0.00
  L 150.00 150.00
  L 0.00 150.00
  L 0.00 0.00
  Z
  M 65.71 79.64
  Q 65.05 80.44 65.04 79.40
  Q 64.93 66.61 65.04 53.98
  C 65.07 50.86 66.16 48.63 69.47 48.56
  Q 69.86 48.55 70.24 48.03
  Q 70.49 47.67 70.05 47.67
  L 50.96 47.68
  Q 50.47 47.68 50.77 48.07
  Q 50.90 48.25 51.10 48.38
  Q 51.38 48.59 51.96 48.58
  C 55.11 48.55 55.65 51.87 55.67 54.00
  Q 55.74 63.06 55.65 99.25
  Q 55.65 101.21 54.47 103.43
  Q 54.26 103.82 53.84 103.95
  L 49.63 105.34
  Q 49.26 105.46 48.87 105.40
  L 48.50 105.34
  Q 48.38 105.33 48.34 105.44
  Q 48.29 105.57 48.33 105.73
  A 0.10 0.09 81.7 0 0 48.42 105.80
  L 72.12 106.04
  Q 72.63 106.05 72.47 105.57
  L 72.37 105.29
  Q 72.33 105.15 72.18 105.15
  C 70.10 105.15 65.17 104.63 65.08 101.70
  Q 64.91 95.85 65.03 89.91
  A 2.92 2.92 0.0 0 1 65.78 88.01
  L 74.15 78.65
  A 0.38 0.37 51.2 0 1 74.76 78.72
  C 82.37 92.81 91.11 105.24 108.74 106.38
  C 113.83 106.71 120.04 104.48 121.08 99.19
  Q 121.20 98.61 120.85 99.09
  C 120.41 99.69 120.27 100.17 119.78 100.68
  Q 115.12 105.50 108.84 104.54
  C 102.46 103.56 96.88 95.10 93.69 90.10
  Q 87.83 80.91 81.96 70.87
  A 1.14 1.13 -40.4 0 1 82.07 69.56
  C 88.65 61.77 98.08 51.77 108.25 48.91
  C 109.44 48.57 110.94 48.82 112.23 47.94
  Q 112.69 47.62 112.14 47.63
  Q 105.17 47.70 98.20 47.69
  C 92.61 47.69 89.06 52.82 84.93 57.41
  Q 74.91 68.56 65.71 79.64
  Z
  M 41.14 97.16
  L 42.53 97.87
  Q 43.06 98.15 43.54 97.81
  C 46.00 96.10 45.26 93.42 42.54 92.89
  C 36.27 91.66 30.23 98.76 34.41 104.62
  C 35.40 106.01 38.36 106.87 40.18 106.43
  Q 46.69 104.88 49.58 98.56
  Q 49.68 98.34 49.46 98.25
  L 49.45 98.24
  Q 49.24 98.15 49.13 98.39
  Q 47.05 103.15 41.84 102.27
  A 0.91 0.90 84.8 0 1 41.15 101.69
  L 39.94 98.21
  A 0.86 0.86 0.0 0 1 41.14 97.16
  Z"
/>
<path fill="#020302" d="
  M 65.71 79.64
  Q 74.91 68.56 84.93 57.41
  C 89.06 52.82 92.61 47.69 98.20 47.69
  Q 105.17 47.70 112.14 47.63
  Q 112.69 47.62 112.23 47.94
  C 110.94 48.82 109.44 48.57 108.25 48.91
  C 98.08 51.77 88.65 61.77 82.07 69.56
  A 1.14 1.13 -40.4 0 0 81.96 70.87
  Q 87.83 80.91 93.69 90.10
  C 96.88 95.10 102.46 103.56 108.84 104.54
  Q 115.12 105.50 119.78 100.68
  C 120.27 100.17 120.41 99.69 120.85 99.09
  Q 121.20 98.61 121.08 99.19
  C 120.04 104.48 113.83 106.71 108.74 106.38
  C 91.11 105.24 82.37 92.81 74.76 78.72
  A 0.38 0.37 51.2 0 0 74.15 78.65
  L 65.78 88.01
  A 2.92 2.92 0.0 0 0 65.03 89.91
  Q 64.91 95.85 65.08 101.70
  C 65.17 104.63 70.10 105.15 72.18 105.15
  Q 72.33 105.15 72.37 105.29
  L 72.47 105.57
  Q 72.63 106.05 72.12 106.04
  L 48.42 105.80
  A 0.10 0.09 81.7 0 1 48.33 105.73
  Q 48.29 105.57 48.34 105.44
  Q 48.38 105.33 48.50 105.34
  L 48.87 105.40
  Q 49.26 105.46 49.63 105.34
  L 53.84 103.95
  Q 54.26 103.82 54.47 103.43
  Q 55.65 101.21 55.65 99.25
  Q 55.74 63.06 55.67 54.00
  C 55.65 51.87 55.11 48.55 51.96 48.58
  Q 51.38 48.59 51.10 48.38
  Q 50.90 48.25 50.77 48.07
  Q 50.47 47.68 50.96 47.68
  L 70.05 47.67
  Q 70.49 47.67 70.24 48.03
  Q 69.86 48.55 69.47 48.56
  C 66.16 48.63 65.07 50.86 65.04 53.98
  Q 64.93 66.61 65.04 79.40
  Q 65.05 80.44 65.71 79.64
  Z"
/>
<path fill="#020302" d="
  M 41.14 97.16
  A 0.86 0.86 0.0 0 0 39.94 98.21
  L 41.15 101.69
  A 0.91 0.90 84.8 0 0 41.84 102.27
  Q 47.05 103.15 49.13 98.39
  Q 49.24 98.15 49.45 98.24
  L 49.46 98.25
  Q 49.68 98.34 49.58 98.56
  Q 46.69 104.88 40.18 106.43
  C 38.36 106.87 35.40 106.01 34.41 104.62
  C 30.23 98.76 36.27 91.66 42.54 92.89
  C 45.26 93.42 46.00 96.10 43.54 97.81
  Q 43.06 98.15 42.53 97.87
  L 41.14 97.16
  Z"
/>
</svg>
